<svg width="16" height="9" viewBox="0 0 16 9" fill="none" xmlns="http://www.w3.org/2000/svg">
<path d="M16 0H0V9H16V0Z" fill="#009B3A"/>
<path d="M2.66431 4.5L8 7.9071L13.3357 4.5L8 1.0929L2.66431 4.5Z" fill="#FEDF00"/>
<path d="M8 6.75C9.24264 6.75 10.25 5.74264 10.25 4.5C10.25 3.25736 9.24264 2.25 8 2.25C6.75736 2.25 5.75 3.25736 5.75 4.5C5.75 5.74264 6.75736 6.75 8 6.75Z" fill="#002776"/>
<mask id="mask0_251_4306" style="mask-type:luminance" maskUnits="userSpaceOnUse" x="5" y="2" width="6" height="5">
<path d="M8 6.75C9.24264 6.75 10.25 5.74264 10.25 4.5C10.25 3.25736 9.24264 2.25 8 2.25C6.75736 2.25 5.75 3.25736 5.75 4.5C5.75 5.74264 6.75736 6.75 8 6.75Z" fill="white"/>
</mask>
<g mask="url(#mask0_251_4306)">
<path d="M1.25 9C1.25 8.28242 1.39133 7.57186 1.66594 6.90891C1.94055 6.24595 2.34306 5.64356 2.85046 5.13615C3.35787 4.62875 3.96024 4.22625 4.6232 3.95164C5.28616 3.67704 5.99671 3.53571 6.71429 3.53571C7.43188 3.53571 8.14245 3.67704 8.8054 3.95164C9.46836 4.22625 10.0707 4.62875 10.5781 5.13615C11.0855 5.64356 11.488 6.24595 11.7626 6.90891C12.0373 7.57186 12.1786 8.28242 12.1786 9H11.8571C11.8601 8.32272 11.7293 7.65153 11.4722 7.02495C11.215 6.39837 10.8367 5.82874 10.3588 5.34877C9.88099 4.8688 9.31303 4.48795 8.68759 4.22807C8.06215 3.9682 7.39153 3.83443 6.71425 3.83443C6.03697 3.83443 5.36635 3.9682 4.74091 4.22807C4.11546 4.48795 3.54751 4.8688 3.06966 5.34877C2.5918 5.82874 2.21346 6.39837 1.95634 7.02495C1.69923 7.65153 1.56841 8.32272 1.5714 9H1.25Z" fill="white"/>
</g>
</svg>
