<svg width="16" height="16" viewBox="0 0 16 16" fill="none" xmlns="http://www.w3.org/2000/svg">
<path d="M7.52668 10.1933C7.49801 10.225 7.47129 10.2584 7.44668 10.2933C7.42145 10.3305 7.40127 10.3708 7.38668 10.4133C7.36746 10.4511 7.35398 10.4915 7.34668 10.5333C7.34341 10.5777 7.34341 10.6223 7.34668 10.6666C7.34443 10.7541 7.36269 10.8409 7.40001 10.92C7.42996 11.0027 7.47772 11.0778 7.53994 11.1401C7.60215 11.2023 7.67728 11.25 7.76001 11.28C7.83981 11.3152 7.9261 11.3335 8.01335 11.3335C8.10059 11.3335 8.18688 11.3152 8.26668 11.28C8.34941 11.25 8.42454 11.2023 8.48676 11.1401C8.54897 11.0778 8.59674 11.0027 8.62668 10.92C8.65628 10.8389 8.66987 10.7529 8.66668 10.6666C8.66719 10.5789 8.65037 10.4919 8.61719 10.4107C8.58402 10.3295 8.53513 10.2556 8.47335 10.1933C8.41137 10.1308 8.33764 10.0812 8.2564 10.0474C8.17516 10.0135 8.08802 9.99611 8.00001 9.99611C7.91201 9.99611 7.82487 10.0135 7.74363 10.0474C7.66239 10.0812 7.58866 10.1308 7.52668 10.1933ZM8.00001 1.33331C6.68147 1.33331 5.39254 1.72431 4.29621 2.45685C3.19988 3.18939 2.3454 4.23058 1.84082 5.44876C1.33623 6.66693 1.20421 8.00737 1.46144 9.30058C1.71868 10.5938 2.35362 11.7817 3.28597 12.714C4.21832 13.6464 5.4062 14.2813 6.69941 14.5385C7.99262 14.7958 9.33306 14.6638 10.5512 14.1592C11.7694 13.6546 12.8106 12.8001 13.5431 11.7038C14.2757 10.6075 14.6667 9.31852 14.6667 7.99998C14.6667 7.1245 14.4942 6.25759 14.1592 5.44876C13.8242 4.63992 13.3331 3.90499 12.7141 3.28593C12.095 2.66688 11.3601 2.17581 10.5512 1.84078C9.7424 1.50575 8.87549 1.33331 8.00001 1.33331ZM8.00001 13.3333C6.94518 13.3333 5.91403 13.0205 5.03697 12.4345C4.15991 11.8484 3.47632 11.0155 3.07266 10.041C2.66899 9.06642 2.56337 7.99406 2.76916 6.9595C2.97495 5.92493 3.4829 4.97462 4.22878 4.22874C4.97466 3.48286 5.92497 2.97491 6.95953 2.76912C7.9941 2.56334 9.06645 2.66895 10.041 3.07262C11.0155 3.47629 11.8485 4.15988 12.4345 5.03694C13.0206 5.914 13.3333 6.94515 13.3333 7.99998C13.3333 9.41447 12.7714 10.771 11.7712 11.7712C10.7711 12.7714 9.4145 13.3333 8.00001 13.3333ZM8.00001 4.66665C7.64872 4.66642 7.30357 4.75873 6.99929 4.93427C6.695 5.10982 6.44233 5.36242 6.26668 5.66665C6.21844 5.74252 6.18606 5.82738 6.17146 5.9161C6.15687 6.00482 6.16037 6.09557 6.18177 6.1829C6.20316 6.27023 6.24199 6.35234 6.29594 6.42427C6.34988 6.4962 6.41782 6.55648 6.49566 6.60148C6.5735 6.64647 6.65965 6.67526 6.7489 6.6861C6.83816 6.69694 6.92869 6.68962 7.01504 6.66456C7.10139 6.63951 7.18178 6.59725 7.25138 6.54033C7.32097 6.4834 7.37834 6.41298 7.42001 6.33331C7.47875 6.23158 7.56333 6.14717 7.66518 6.08863C7.76703 6.0301 7.88254 5.99951 8.00001 5.99998C8.17682 5.99998 8.34639 6.07022 8.47142 6.19524C8.59644 6.32027 8.66668 6.48983 8.66668 6.66665C8.66668 6.84346 8.59644 7.01303 8.47142 7.13805C8.34639 7.26307 8.17682 7.33331 8.00001 7.33331C7.8232 7.33331 7.65363 7.40355 7.52861 7.52857C7.40358 7.6536 7.33335 7.82317 7.33335 7.99998V8.66665C7.33335 8.84346 7.40358 9.01303 7.52861 9.13805C7.65363 9.26307 7.8232 9.33331 8.00001 9.33331C8.17682 9.33331 8.34639 9.26307 8.47142 9.13805C8.59644 9.01303 8.66668 8.84346 8.66668 8.66665V8.54665C9.10759 8.38666 9.47825 8.0768 9.71386 7.67123C9.94947 7.26565 10.035 6.79017 9.95561 6.32791C9.87619 5.86564 9.63681 5.44599 9.27934 5.14232C8.92187 4.83865 8.46904 4.67028 8.00001 4.66665Z" fill="white"/>
</svg>
